<?xml version="1.0" standalone="no"?><!DOCTYPE svg PUBLIC "-//W3C//DTD SVG 1.1//EN" "http://www.w3.org/Graphics/SVG/1.1/DTD/svg11.dtd"><svg t="1773735561608" class="icon" viewBox="0 0 1024 1024" version="1.1" xmlns="http://www.w3.org/2000/svg" p-id="11357" xmlns:xlink="http://www.w3.org/1999/xlink" width="200" height="200"><path d="M307.797333 560.341333l292.181334-180.053333a18.56 18.56 0 0 1 21.077333 1.152c27.733333 21.333333 52.565333 43.050667 69.12 61.269333 0 0 14.250667 14.592 20.394667 23.850667 9.984 12.629333 14.762667 29.141333 14.762666 45.184 0 18.005333-5.248 34.986667-15.701333 48.64-2.389333 2.432-11.434667 13.141333-19.968 21.888-49.877333 54.442667-180.010667 144.384-248.448 171.648-9.941333 4.394667-36.522667 13.568-50.346667 14.08-13.269333 0-26.112-2.901333-38.442666-9.258667a79.616 79.616 0 0 1-33.706667-38.4c-4.309333-11.178667-10.965333-44.714667-10.965333-45.696-4.266667-23.936-7.466667-57.6-9.088-96.853333a19.754667 19.754667 0 0 1 9.130666-17.493333z" fill="#515151" p-id="11358"></path><path d="M327.338667 463.36c-12.885333 7.978667-29.098667-2.218667-28.458667-17.493333 1.536-35.968 4.224-67.626667 7.466667-91.178667 0.512-0.512 7.125333-42.24 14.762666-56.405333A75.861333 75.861333 0 0 1 388.522667 256h2.346666c18.090667 0.469333 56.576 16.512 56.576 17.493333 19.370667 8.064 44.672 21.717333 71.893334 38.144a19.584 19.584 0 0 1 0.298666 33.194667L327.338667 463.36z" fill="#515151" opacity=".4" p-id="11359"></path></svg>